<svg id="Solid" height="512" viewBox="0 0 512 512" width="512" xmlns="http://www.w3.org/2000/svg"><path d="m360 376h80v16h-80z"/><path d="m344 104a31.8 31.8 0 0 0 -4.444-16.242l-21.9 21.9-11.313-11.315 21.9-21.9a31.99 31.99 0 1 0 15.757 27.557z"/><path d="m184 176h80v16h-80z"/><circle cx="152" cy="360" r="24"/><path d="m152 304a56 56 0 1 0 56 56 56.064 56.064 0 0 0 -56-56zm0 96a40 40 0 1 1 40-40 40.045 40.045 0 0 1 -40 40z"/><path d="m227.783 417.9a7.992 7.992 0 0 1 6.065-2.333l28.635 1.463 7.965-19.229-21.282-19.215a8 8 0 0 1 -2.639-5.938v-25.294a8 8 0 0 1 2.639-5.938l21.282-19.216-7.965-19.229-28.635 1.463a7.994 7.994 0 0 1 -6.065-2.333l-17.883-17.884a8 8 0 0 1 -2.333-6.065l1.463-28.635-19.23-7.965-19.215 21.282a8 8 0 0 1 -5.938 2.639h-25.293a8 8 0 0 1 -5.938-2.639l-19.216-21.282-19.229 7.965 1.463 28.635a8 8 0 0 1 -2.333 6.065l-17.884 17.883a8.026 8.026 0 0 1 -6.065 2.333l-28.635-1.463-7.965 19.23 21.282 19.215a8 8 0 0 1 2.639 5.938v25.292a8 8 0 0 1 -2.639 5.938l-21.282 19.217 7.965 19.229 28.635-1.463a8.028 8.028 0 0 1 6.065 2.333l17.883 17.884a8 8 0 0 1 2.333 6.065l-1.463 28.635 19.229 7.965 19.215-21.282a8 8 0 0 1 5.938-2.639h25.292a8 8 0 0 1 5.938 2.639l19.218 21.282 19.229-7.965-1.463-28.635a8 8 0 0 1 2.333-6.065zm-75.783 14.1a72 72 0 1 1 72-72 72.081 72.081 0 0 1 -72 72z"/><path d="m360 312h80v16h-80z"/><path d="m360 240h80v16h-80z"/><path d="m360 176h80v16h-80z"/><path d="m144 32v217.473h17.091l20.615-22.834a8 8 0 0 1 9-2.03l29.661 12.291a8 8 0 0 1 4.928 7.8l-1.569 30.723 12.857 12.857 30.723-1.569a7.994 7.994 0 0 1 7.8 4.928l12.286 29.661a8 8 0 0 1 -2.03 9l-22.834 20.615v18.182l22.834 20.615a8 8 0 0 1 2.03 9l-12.286 29.661a8.021 8.021 0 0 1 -7.8 4.928l-30.723-1.569-12.857 12.857.174 3.411h256.1v-416zm64 96h16v16h-16zm-32 0h16v16h-16zm280 72a8 8 0 0 1 -8 8h-40v16h40a8 8 0 0 1 8 8v32a8 8 0 0 1 -8 8h-96a8 8 0 0 1 -8-8v-32a8 8 0 0 1 8-8h40v-16h-40a8 8 0 0 1 -8-8v-8h-24v120h24v-8a8 8 0 0 1 8-8h96a8 8 0 0 1 8 8v32a8 8 0 0 1 -8 8h-40v16h40a8 8 0 0 1 8 8v32a8 8 0 0 1 -8 8h-40v16h-16v-16h-40a8 8 0 0 1 -8-8v-32a8 8 0 0 1 8-8h40v-16h-40a8 8 0 0 1 -8-8v-8h-24v96h-16v-232h-24v8a8 8 0 0 1 -8 8h-40v16h-16v-16h-40a8 8 0 0 1 -8-8v-32a8 8 0 0 1 8-8h96a8 8 0 0 1 8 8v8h24v-24.679a47.992 47.992 0 1 1 35.788-86.421l14.555-14.556a8 8 0 0 1 5.657-2.344h88v16h-84.687l-12.213 12.212a47.948 47.948 0 0 1 -31.1 75.109v24.679h24v-8a8 8 0 0 1 8-8h96a8 8 0 0 1 8 8zm-8-72v16h-16v-16zm-32 0v16h-16v-16z"/></svg>